# xmcd
#
# Track frame offsets: 
#        150
#        12982
#        26720
#        36140
#        46775
#        62147
#        74195
#        84627
#        98992
#        109932
#        122902
#        136212
#        151495
#        162540
#        171785
#        183132
#        194175
#        204870
#        217265
#        228727
#        239897
#        250857
#        262740
#        276255
#        286755
#        295970
#
# Disc length: 4065 seconds
#
# Revision: 0
# Processed by: cddbd v1.5.2PL0 Copyright (c) Steve Scherf et al.
# Submitted via: ExactAudioCopy v0.99pb5
#
DISCID=960fdf1a
DTITLE=Bob Wills and His Texas Playboys - Faded Love 1947-1973 [CD4]
DYEAR=2005
DGENRE=Country
TTITLE0=A Broken Heart For A Souvenir
TTITLE1=(Everyone Is Calling You A) Fallen Angel
TTITLE2=She's The Quarter Horse Type (Of A Gal)
TTITLE3=B. Bowman Hop
TTITLE4=As I Sit Broken-Hearted
TTITLE5=Bottle Baby Boogie
TTITLE6=I Want To Go To Mexico
TTITLE7=I'm Human, Same As You
TTITLE8=I Hit The Jackpot (When I Won You)
TTITLE9=A Maiden's Prayer
TTITLE10=(Me And My Baby) Doin' The Bunny Hop
TTITLE11=St. Louis Blues
TTITLE12=So Long, I'll See You Later
TTITLE13=Cadillac In Model 'A'
TTITLE14=Waltzing In Old San Antone
TTITLE15=I've Got A New Road Under My Wheels
TTITLE16=Texas Blues
TTITLE17=I Live For You
TTITLE18=New Osage Stomp
TTITLE19=Carnations For The Memory
TTITLE20=Too Much Mambo
TTITLE21=Echo Yodel
TTITLE22=New Dreamy Eyed Waltz
TTITLE23=Black And Blue Rag
TTITLE24=Sincerely
TTITLE25=Cornball Rag
EXTD=
EXTT0=
EXTT1=
EXTT2=
EXTT3=
EXTT4=
EXTT5=
EXTT6=
EXTT7=
EXTT8=
EXTT9=
EXTT10=
EXTT11=
EXTT12=
EXTT13=
EXTT14=
EXTT15=
EXTT16=
EXTT17=
EXTT18=
EXTT19=
EXTT20=
EXTT21=
EXTT22=
EXTT23=
EXTT24=
EXTT25=
PLAYORDER=
